<svg xmlns="http://www.w3.org/2000/svg" xmlns:xlink="http://www.w3.org/1999/xlink" width="590" zoomAndPan="magnify" viewBox="0 0 442.5 392.250001" height="523" preserveAspectRatio="xMidYMid meet" version="1.0"><defs><clipPath id="112e259196"><path d="M 280.4375 202.214844 L 398 202.214844 L 398 304.984375 L 280.4375 304.984375 Z M 280.4375 202.214844 " clip-rule="nonzero"/></clipPath><clipPath id="58218893b4"><path d="M 339.164062 202.214844 L 397.886719 304.984375 L 280.4375 304.984375 Z M 339.164062 202.214844 " clip-rule="nonzero"/></clipPath><clipPath id="df4525900f"><path d="M 295 184 L 437.464844 184 L 437.464844 384.59375 L 295 384.59375 Z M 295 184 " clip-rule="nonzero"/></clipPath><clipPath id="3e3ad934dd"><path d="M 39 6.566406 L 206 6.566406 L 206 123 L 39 123 Z M 39 6.566406 " clip-rule="nonzero"/></clipPath><clipPath id="8df6c4a687"><path d="M 4.792969 146 L 66 146 L 66 209 L 4.792969 209 Z M 4.792969 146 " clip-rule="nonzero"/></clipPath></defs><g clip-path="url(#112e259196)"><g clip-path="url(#58218893b4)"><path fill="#969191" d="M 280.4375 202.214844 L 398.058594 202.214844 L 398.058594 304.984375 L 280.4375 304.984375 Z M 280.4375 202.214844 " fill-opacity="1" fill-rule="nonzero"/></g></g><path fill="#fec3aa" d="M 322.632812 335.597656 L 295.453125 331.59375 C 295.453125 331.59375 274.386719 326.824219 263.132812 328.105469 C 251.878906 329.390625 243.863281 328.515625 237.289062 333.800781 C 230.710938 339.085938 232.867188 344.523438 232.867188 344.523438 C 232.867188 344.523438 227.679688 349.808594 228.347656 352.015625 C 229.015625 354.222656 228.191406 362.328125 230.300781 364.277344 C 232.40625 366.226562 233.28125 366.328125 233.28125 366.328125 C 234.257812 368.175781 236.105469 369.410156 238.160156 369.5625 C 241.65625 369.820312 253.164062 364.535156 256.660156 364.636719 C 260.152344 364.738281 276.183594 366.074219 284.457031 364.945312 C 292.726562 363.816406 297.148438 360.890625 297.148438 360.890625 L 331.316406 371.613281 C 331.316406 371.613281 330.132812 345.652344 322.632812 335.597656 Z M 322.632812 335.597656 " fill-opacity="1" fill-rule="nonzero"/><path fill="#fec3aa" d="M 130.671875 166.796875 C 128.511719 164.078125 126.148438 161.515625 123.578125 159.152344 C 119.933594 156.074219 116.746094 147.660156 120.496094 145.507812 C 124.246094 143.351562 137.660156 155.050781 142.179688 160.847656 C 146.703125 166.644531 158.109375 183.214844 161.5 192.503906 C 164.890625 201.789062 162.117188 206.5625 163.296875 208.765625 L 172.597656 226.878906 C 172.597656 226.878906 164.582031 232.675781 155.796875 236.269531 C 147.011719 239.859375 143.105469 240.011719 143.105469 240.011719 C 143.105469 240.011719 134.0625 222.570312 132.625 221.695312 C 131.183594 220.824219 125.121094 217.953125 122.910156 214.460938 C 121.523438 212.152344 120.496094 209.691406 119.828125 207.074219 C 119.828125 207.074219 112.996094 205.535156 110.117188 200.097656 C 107.242188 194.65625 105.597656 190.296875 106.625 186.707031 C 107.652344 183.113281 109.605469 181.113281 112.328125 180.242188 C 113.304688 177.523438 115.101562 175.160156 117.515625 173.519531 C 121.371094 171.058594 121.628906 171.570312 122.039062 171.722656 C 122.449219 171.878906 123.578125 165.773438 130.671875 166.796875 Z M 130.671875 166.796875 " fill-opacity="1" fill-rule="nonzero"/><path fill="#a3dfbe" d="M 142.949219 240.421875 C 142.386719 240.421875 169.257812 320.71875 181.640625 332.519531 C 194.023438 344.320312 222.644531 330.929688 228.449219 326.15625 C 234.257812 321.386719 259.023438 295.988281 259.023438 295.988281 C 259.023438 295.988281 265.1875 307.328125 266.984375 313.996094 C 268.785156 320.667969 273.152344 326.875 272.792969 327.441406 C 272.433594 328.003906 303.210938 332.878906 309.375 333.390625 C 313.847656 333.851562 318.265625 334.621094 322.632812 335.597656 C 322.632812 335.597656 332.753906 359.042969 331.316406 371.613281 C 331.316406 371.613281 368.207031 381.207031 390.097656 382.800781 C 411.984375 384.390625 428.117188 375.050781 432.332031 363.765625 C 436.546875 352.476562 435.519531 332.363281 434.644531 327.746094 C 433.769531 323.128906 423.855469 233.753906 423.855469 233.753906 C 423.855469 233.753906 417.6875 210.101562 399.859375 204.457031 C 382.03125 198.8125 363.996094 187.679688 361.683594 183.472656 C 359.371094 179.265625 361.476562 176.546875 359.011719 175.316406 C 356.542969 174.085938 317.699219 171.109375 317.699219 171.109375 C 317.699219 171.109375 314.308594 171.261719 314.515625 173.726562 C 314.71875 176.1875 313.433594 180.085938 310.609375 181.164062 C 307.78125 182.242188 288.359375 184.34375 281.835938 184.34375 C 275.308594 184.34375 258.300781 188.910156 251.929688 197.890625 C 245.558594 206.867188 232.148438 238.472656 227.578125 245.707031 C 223.003906 252.941406 199.984375 279.621094 199.984375 279.621094 L 172.957031 227.03125 C 172.957031 227.03125 149.117188 240.421875 142.949219 240.421875 Z M 142.949219 240.421875 " fill-opacity="1" fill-rule="nonzero"/><path fill="#fec3aa" d="M 306.910156 85.632812 C 306.910156 85.632812 289.386719 88.144531 285.945312 99.484375 C 282.503906 110.824219 286.253906 119.597656 286.253906 123.855469 C 286.253906 128.113281 287.023438 145.761719 288.464844 149.660156 C 289.902344 153.5625 297.917969 167.15625 307.371094 169.824219 C 316.828125 172.492188 323.917969 172.03125 323.917969 172.03125 L 356.851562 174.546875 C 356.851562 174.546875 353.71875 159.101562 355.566406 149.816406 C 355.566406 149.816406 354.796875 149.816406 358.90625 145.558594 C 363.019531 141.300781 366 136.324219 365.535156 130.78125 C 365.074219 125.238281 361.117188 123.238281 358.292969 123.699219 C 355.464844 124.164062 351.972656 126.832031 351.972656 126.832031 C 351.972656 126.832031 342.207031 124.828125 336.503906 107.796875 C 330.800781 90.761719 324.480469 79.578125 315.234375 79.320312 C 309.117188 79.167969 306.910156 85.632812 306.910156 85.632812 Z M 306.910156 85.632812 " fill-opacity="1" fill-rule="nonzero"/><path fill="#734c4c" d="M 285.894531 121.1875 C 285.894531 121.1875 275.667969 114.054688 278.597656 99.023438 C 281.527344 83.988281 292.472656 71.058594 298.84375 66.75 C 305.214844 62.441406 317.699219 57.054688 337.894531 57.566406 C 358.085938 58.078125 364.714844 66.082031 368.617188 70.648438 C 372.523438 75.214844 377.765625 82.195312 377.765625 82.195312 C 377.765625 82.195312 383.003906 74.960938 389.890625 77.371094 C 396.777344 79.78125 406.332031 84.347656 411.007812 95.945312 C 415.683594 107.539062 412.242188 127.242188 409.160156 133.601562 C 406.074219 139.964844 402.429688 156.433594 404.175781 164.386719 C 405.921875 172.339844 411.007812 177.675781 411.417969 177.417969 C 411.832031 177.164062 406.332031 181.316406 395.695312 177.675781 C 385.0625 174.03125 376.839844 157.769531 375.195312 150.789062 C 374.21875 146.6875 373.960938 142.480469 374.375 138.273438 C 374.375 138.273438 360.808594 150.945312 358.652344 153.101562 C 356.492188 155.253906 355.414062 161.308594 355.414062 161.308594 L 355.566406 149.816406 C 355.566406 149.816406 363.996094 141.914062 365.226562 135.449219 C 366.460938 128.984375 364.816406 124.984375 361.167969 123.753906 C 357.519531 122.519531 351.972656 126.832031 351.972656 126.832031 C 351.972656 126.832031 342.722656 122.828125 337.738281 110.464844 C 332.753906 98.097656 329.929688 86.246094 324.535156 85.425781 C 319.136719 84.605469 312.40625 87.066406 312.40625 87.066406 C 312.40625 87.066406 306.652344 84.503906 303.003906 85.167969 C 299.355469 85.835938 290.210938 89.992188 287.488281 96.867188 C 284.765625 103.742188 283.890625 111.796875 285.894531 121.1875 Z M 285.894531 121.1875 " fill-opacity="1" fill-rule="nonzero"/><path fill="#000000" d="M 377.558594 242.117188 C 377.714844 266.847656 380.488281 291.578125 382.800781 316.203125 C 383.417969 322.566406 384.035156 328.980469 384.597656 335.390625 C 384.753906 337.136719 387.476562 337.136719 387.320312 335.390625 C 385.214844 310.765625 382.335938 286.136719 380.949219 261.40625 C 380.589844 254.996094 380.332031 248.582031 380.28125 242.117188 C 380.28125 240.371094 377.558594 240.371094 377.558594 242.117188 Z M 377.558594 242.117188 " fill-opacity="1" fill-rule="nonzero"/><path fill="#000000" d="M 143.671875 194.246094 C 140.84375 188.808594 135.550781 185.527344 131.800781 180.90625 C 130.875 179.777344 129.746094 178.292969 129.847656 176.804688 C 129.953125 175.316406 131.59375 174.496094 132.984375 174.441406 C 134.371094 174.390625 136.375 175.058594 137.914062 175.675781 C 139.40625 176.238281 140.84375 176.90625 142.230469 177.625 C 145.46875 179.265625 148.398438 181.523438 150.8125 184.242188 C 151.941406 185.578125 153.84375 183.628906 152.714844 182.292969 C 150.296875 179.523438 147.371094 177.214844 144.132812 175.519531 C 142.488281 174.648438 140.742188 173.878906 138.996094 173.210938 C 137.195312 172.492188 135.347656 171.773438 133.394531 171.722656 C 129.746094 171.570312 126.40625 174.390625 127.28125 178.238281 C 128.152344 182.085938 131.132812 184.398438 133.546875 186.707031 C 135.960938 189.015625 139.457031 192.042969 141.304688 195.632812 C 142.078125 197.171875 144.441406 195.785156 143.671875 194.246094 Z M 143.671875 194.246094 " fill-opacity="1" fill-rule="nonzero"/><path fill="#000000" d="M 134.265625 168.492188 C 131.800781 163.359375 126.867188 160.539062 123.375 156.28125 C 121.574219 154.125 119.625 150.738281 120.496094 147.816406 C 121.011719 146.121094 122.65625 146.839844 123.835938 147.40625 C 124.863281 147.917969 125.839844 148.480469 126.816406 149.097656 C 135.601562 154.484375 142.898438 162.898438 148.550781 171.417969 C 152.40625 177.417969 155.796875 183.730469 158.621094 190.296875 C 160.421875 194.351562 162.066406 198.710938 161.703125 203.226562 C 161.5 204.613281 161.449219 206.046875 161.652344 207.484375 C 161.910156 208.820312 162.679688 209.894531 163.296875 211.074219 C 166.074219 216.257812 168.640625 221.59375 171.417969 226.777344 C 174.960938 233.546875 178.710938 240.167969 182.617188 246.734375 C 183.492188 248.273438 185.855469 246.886719 184.929688 245.398438 C 181.28125 239.191406 177.734375 232.933594 174.34375 226.570312 C 171.519531 221.285156 168.949219 215.847656 166.125 210.5625 C 165.457031 209.382812 164.480469 208.101562 164.273438 206.765625 C 164.070312 205.433594 164.429688 203.6875 164.480469 202.097656 C 164.582031 197.222656 162.578125 192.503906 160.574219 188.089844 C 157.390625 180.960938 153.636719 173.777344 149.066406 167.414062 C 145.777344 162.796875 142.078125 158.488281 137.964844 154.535156 C 134.320312 150.996094 130.207031 147.558594 125.582031 145.25 C 123.375 144.171875 120.136719 143.042969 118.492188 145.660156 C 116.847656 148.277344 117.722656 151.867188 118.957031 154.382812 C 121.9375 160.640625 128.921875 163.617188 131.902344 169.824219 C 132.675781 171.417969 134.988281 170.03125 134.265625 168.492188 Z M 134.265625 168.492188 " fill-opacity="1" fill-rule="nonzero"/><path fill="#000000" d="M 112.636719 179.164062 C 108.679688 178.496094 106.265625 182.652344 105.546875 185.988281 C 104.515625 190.449219 105.90625 194.761719 108.011719 198.660156 C 108.9375 200.351562 109.859375 202.355469 111.144531 203.789062 C 111.761719 204.40625 112.378906 204.917969 113.097656 205.433594 C 115.257812 207.074219 118.183594 208.714844 120.960938 207.84375 C 123.734375 206.972656 125.277344 203.789062 124.144531 200.761719 C 123.578125 199.121094 120.90625 199.839844 121.523438 201.480469 C 121.832031 202.25 122.140625 203.226562 121.78125 204.046875 C 121.421875 204.867188 119.828125 205.484375 118.75 205.328125 C 116.796875 204.96875 114.484375 203.484375 113.148438 201.945312 C 111.8125 200.40625 111.351562 199.121094 110.582031 197.738281 C 109.5 195.890625 108.679688 193.886719 108.164062 191.785156 C 107.703125 189.628906 107.804688 187.421875 108.523438 185.371094 C 108.988281 184.089844 110.21875 181.523438 111.917969 181.832031 C 113.613281 182.140625 114.382812 179.472656 112.636719 179.164062 Z M 112.636719 179.164062 " fill-opacity="1" fill-rule="nonzero"/><path fill="#000000" d="M 121.574219 170.75 C 117.566406 170.953125 114.382812 173.417969 112.789062 177.007812 C 111.195312 180.601562 111.660156 185.421875 113.40625 189.320312 C 115.203125 193.066406 117.515625 196.554688 120.292969 199.6875 C 122.140625 201.839844 124.503906 204.613281 127.585938 204.097656 C 129.746094 203.738281 131.648438 202.816406 132.570312 200.660156 C 133.496094 198.507812 133.1875 196.453125 131.851562 195.273438 C 130.515625 194.09375 128.617188 195.992188 129.898438 197.171875 C 131.183594 198.351562 129.644531 200.867188 128.101562 201.277344 C 126.558594 201.6875 126.457031 201.636719 125.480469 200.96875 C 122.449219 198.863281 120.1875 195.375 118.234375 192.347656 C 116.285156 189.320312 113.664062 184.5 114.589844 180.191406 C 115.308594 176.699219 117.824219 173.621094 121.574219 173.46875 C 123.324219 173.367188 123.324219 170.648438 121.574219 170.75 Z M 121.574219 170.75 " fill-opacity="1" fill-rule="nonzero"/><path fill="#000000" d="M 137.503906 193.117188 C 137.554688 194.453125 137.144531 196.195312 135.550781 196.300781 C 132.625 196.554688 130.207031 193.273438 128.769531 191.167969 C 125.582031 186.652344 122.296875 181.113281 122.757812 175.417969 C 122.964844 173.007812 123.992188 169.722656 126.40625 168.644531 C 128 167.925781 129.796875 168.082031 131.289062 168.953125 C 132.726562 169.980469 134.0625 167.621094 132.675781 166.59375 C 131.289062 165.566406 128.921875 165.414062 127.023438 165.667969 C 125.121094 165.925781 122.550781 167.925781 121.421875 170.289062 C 119.316406 174.597656 119.726562 179.882812 121.628906 184.140625 C 122.910156 187.011719 124.503906 189.785156 126.304688 192.402344 C 128.410156 195.425781 131.234375 198.917969 135.242188 199.019531 C 139.25 199.121094 140.332031 196.144531 140.226562 193.117188 C 140.175781 191.375 137.453125 191.375 137.503906 193.117188 Z M 137.503906 193.117188 " fill-opacity="1" fill-rule="nonzero"/><path fill="#000000" d="M 119.058594 207.175781 C 121.371094 213.796875 124.761719 220.875 132.261719 222.570312 L 131.441406 221.953125 C 135.601562 229.085938 139.765625 236.164062 143.003906 243.757812 C 143.671875 245.398438 146.035156 244.015625 145.367188 242.425781 C 142.28125 235.191406 138.378906 228.519531 134.472656 221.746094 C 134.011719 220.875 133.753906 220.207031 132.777344 219.902344 C 130.980469 219.335938 129.285156 218.414062 127.84375 217.234375 C 124.503906 214.410156 123.066406 210.460938 121.679688 206.457031 C 121.113281 204.816406 118.492188 205.535156 119.058594 207.175781 Z M 119.058594 207.175781 " fill-opacity="1" fill-rule="nonzero"/><path fill="#000000" d="M 247.871094 332.109375 C 244.429688 333.441406 241.191406 335.289062 238.210938 337.496094 C 235.488281 339.652344 233.074219 342.113281 230.917969 344.832031 C 228.347656 348.117188 225.625 352.992188 229.117188 356.683594 C 230.300781 357.96875 232.199219 356.015625 231.019531 354.734375 C 228.449219 352.066406 231.945312 347.960938 233.535156 345.910156 C 237.492188 340.933594 242.683594 337.085938 248.589844 334.726562 C 250.234375 334.058594 249.515625 331.441406 247.871094 332.109375 Z M 247.871094 332.109375 " fill-opacity="1" fill-rule="nonzero"/><path fill="#000000" d="M 252.035156 339.753906 C 248.488281 341.191406 245.148438 342.984375 242.066406 345.191406 C 239.035156 347.140625 236.15625 349.296875 233.433594 351.605469 C 230.453125 354.273438 227.523438 358.121094 228.398438 362.429688 C 228.964844 365.148438 231.222656 366.742188 233.84375 367.355469 C 235.539062 367.714844 236.261719 365.097656 234.5625 364.738281 C 232.867188 364.378906 230.863281 362.890625 230.96875 360.480469 C 231.070312 358.992188 231.945312 357.351562 232.972656 356.015625 C 235.285156 353.09375 238.570312 350.9375 241.601562 348.835938 C 244.636719 346.730469 248.746094 343.960938 252.753906 342.421875 C 254.347656 341.753906 253.679688 339.136719 252.035156 339.753906 Z M 252.035156 339.753906 " fill-opacity="1" fill-rule="nonzero"/><path fill="#000000" d="M 257.480469 349.707031 C 252.703125 350.785156 248.28125 353.042969 244.273438 355.863281 C 242.269531 357.25 240.320312 358.789062 238.46875 360.378906 L 235.695312 362.789062 C 234.925781 363.507812 233.535156 364.378906 233.023438 365.355469 C 232.507812 366.328125 232.921875 368.125 233.640625 368.996094 C 235.335938 371.308594 238.726562 370.949219 241.242188 370.484375 C 245.046875 369.765625 248.746094 368.332031 252.445312 367.097656 C 254.242188 366.433594 256.144531 366.074219 258.097656 366.074219 C 264.007812 366.023438 269.914062 366.585938 275.875 366.433594 C 279.933594 366.433594 283.992188 366.023438 288 365.355469 C 291.390625 364.738281 294.9375 363.714844 297.710938 361.609375 C 299.097656 360.582031 297.761719 358.222656 296.324219 359.25 C 291.546875 362.890625 284.558594 363.355469 278.753906 363.609375 C 272.945312 363.867188 266.832031 363.660156 260.820312 363.40625 C 259.023438 363.304688 257.171875 363.355469 255.375 363.558594 C 253.421875 363.816406 251.570312 364.535156 249.722656 365.148438 C 246.125 366.433594 241.964844 368.175781 238.058594 368.125 C 237.289062 368.125 236.3125 368.023438 235.746094 367.355469 C 235.589844 367.097656 235.488281 366.792969 235.539062 366.484375 C 235.488281 366.074219 235.589844 366.328125 235.488281 366.382812 L 235.589844 366.636719 L 236.414062 365.867188 L 238.058594 364.378906 C 240.0625 362.585938 242.117188 360.789062 244.273438 359.199219 C 248.488281 356.070312 253.0625 353.503906 258.199219 352.324219 C 259.945312 351.964844 259.226562 349.347656 257.480469 349.707031 Z M 257.480469 349.707031 " fill-opacity="1" fill-rule="nonzero"/><path fill="#000000" d="M 233.84375 342.730469 C 232.816406 340.472656 233.535156 337.855469 235.027344 336.007812 C 236.515625 334.160156 237.492188 334.160156 238.828125 333.546875 C 241.964844 332.058594 245.199219 330.824219 248.539062 329.953125 C 250.441406 329.492188 252.394531 329.285156 254.347656 329.285156 C 257.429688 329.132812 260.511719 329.132812 263.542969 329.234375 C 270.683594 329.390625 277.878906 329.902344 284.96875 330.824219 C 287.898438 331.183594 290.828125 331.75 293.703125 332.417969 C 295.09375 332.777344 296.425781 333.339844 297.867188 333.546875 C 308.914062 334.980469 320.0625 336.265625 331.214844 337.339844 C 346.832031 338.882812 362.554688 339.546875 378.226562 339.34375 C 391.433594 339.136719 404.6875 338.675781 417.894531 338.007812 L 418.613281 338.007812 C 420.359375 337.90625 420.359375 335.1875 418.613281 335.289062 C 406.847656 335.855469 395.027344 336.265625 383.261719 336.519531 C 374.835938 336.726562 366.410156 336.878906 357.984375 336.570312 C 349.554688 336.265625 342.261719 335.648438 334.398438 334.878906 C 322.324219 333.800781 310.25 332.417969 298.175781 330.878906 L 297.351562 330.773438 C 297.609375 330.824219 296.734375 330.464844 296.53125 330.363281 L 294.730469 329.902344 C 291.753906 329.183594 288.71875 328.621094 285.6875 328.210938 C 278.394531 327.234375 271.097656 326.671875 263.75 326.515625 C 258.664062 326.414062 252.957031 326.003906 247.976562 327.285156 C 244.6875 328.15625 241.5 329.339844 238.417969 330.722656 C 234.976562 332.261719 232.097656 334.160156 230.96875 338.007812 C 230.402344 340.007812 230.609375 342.164062 231.480469 344.0625 C 232.199219 345.652344 234.5625 344.269531 233.84375 342.730469 Z M 233.84375 342.730469 " fill-opacity="1" fill-rule="nonzero"/><path fill="#6293f1" d="M 192.945312 257.148438 C 192.945312 257.148438 189.503906 250.171875 187.445312 248.734375 C 185.496094 247.351562 178.042969 246.375 178.042969 246.375 C 165.351562 246.066406 13.929688 245.914062 13.929688 245.914062 C 13.929688 245.914062 5.453125 246.167969 7.613281 255.148438 C 9.769531 264.128906 39.777344 356.171875 40.648438 359.042969 C 41.523438 361.917969 46.148438 365.253906 54.164062 364.945312 C 62.179688 364.636719 231.019531 362.839844 231.019531 362.839844 C 219.867188 327.082031 207.179688 291.882812 192.945312 257.148438 Z M 192.945312 257.148438 " fill-opacity="1" fill-rule="nonzero"/><path fill="#000000" d="M 232.355469 362.480469 C 225.316406 339.957031 217.710938 317.640625 209.4375 295.578125 C 205.277344 284.445312 200.960938 273.363281 196.492188 262.332031 C 194.742188 257.96875 193.511719 252.941406 190.066406 249.605469 C 184.46875 244.21875 176.398438 244.988281 169.207031 244.9375 L 143.105469 244.785156 L 107.546875 244.785156 L 69.988281 244.683594 L 17.269531 244.683594 C 12.800781 244.683594 7.558594 245.042969 6.171875 250.378906 C 5.351562 253.660156 6.636719 257.097656 7.558594 260.226562 L 11.105469 271.667969 C 14.597656 282.855469 18.195312 294.089844 21.792969 305.273438 C 25.390625 316.460938 29.242188 328.363281 32.992188 339.90625 L 39.210938 358.890625 C 41.675781 366.535156 51.132812 366.382812 57.863281 366.226562 L 77.695312 365.972656 L 108.78125 365.558594 L 145.261719 365.148438 L 181.4375 364.738281 L 211.132812 364.429688 L 228.65625 364.226562 L 231.019531 364.226562 C 232.765625 364.226562 232.765625 361.507812 231.019531 361.507812 L 221.820312 361.609375 L 197.878906 361.867188 L 164.890625 362.277344 L 128.410156 362.6875 L 94.085938 363.097656 L 67.574219 363.457031 L 54.421875 363.660156 C 50.207031 363.765625 43.375 363.097656 41.832031 358.273438 C 41.164062 356.121094 40.445312 354.015625 39.777344 351.863281 C 36.746094 342.472656 33.660156 333.132812 30.628906 323.746094 C 26.828125 311.894531 22.976562 299.992188 19.222656 288.136719 C 16.242188 278.902344 13.316406 269.71875 10.539062 260.484375 C 9.769531 257.917969 8.484375 254.890625 8.640625 252.171875 C 8.792969 249.453125 11.566406 247.351562 14.035156 247.296875 C 18.09375 247.246094 22.152344 247.351562 26.210938 247.351562 L 53.445312 247.351562 L 88.949219 247.453125 L 125.789062 247.453125 L 157.132812 247.605469 C 163.503906 247.605469 169.824219 247.605469 176.195312 247.710938 C 180.613281 247.761719 185.03125 248.425781 188.320312 251.761719 C 189.707031 253.148438 190.785156 254.789062 191.402344 256.636719 C 192.429688 259.765625 193.765625 262.742188 195 265.769531 C 203.683594 287.367188 211.800781 309.125 219.253906 331.132812 C 222.902344 341.804688 226.34375 352.476562 229.734375 363.199219 C 230.25 364.84375 232.867188 364.125 232.355469 362.480469 Z M 232.355469 362.480469 " fill-opacity="1" fill-rule="nonzero"/><path fill="#000000" d="M 266.011719 212.769531 C 269.402344 229.597656 267.550781 247.09375 260.613281 262.792969 C 257.582031 269.617188 254.039062 276.132812 254.65625 283.828125 C 254.859375 287.472656 255.628906 291.011719 256.863281 294.449219 C 257.941406 297.476562 259.484375 300.296875 260.921875 303.121094 C 264.878906 311.074219 268.527344 319.179688 270.789062 327.796875 C 271.25 329.492188 273.871094 328.773438 273.410156 327.082031 C 271.40625 319.4375 268.320312 312.097656 264.828125 304.96875 C 261.746094 298.605469 258.25 292.550781 257.480469 285.367188 C 257.019531 281.675781 257.378906 277.980469 258.558594 274.441406 C 259.792969 270.746094 261.640625 267.257812 263.183594 263.714844 C 270.273438 247.453125 272.175781 229.445312 268.628906 212.050781 C 268.269531 210.359375 265.648438 211.074219 266.011719 212.769531 Z M 266.011719 212.769531 " fill-opacity="1" fill-rule="nonzero"/><path fill="#000000" d="M 203.582031 277.722656 C 217.761719 263.203125 229.527344 245.914062 238.570312 227.800781 C 242.632812 219.695312 245.304688 210.820312 250.285156 203.226562 C 255.269531 195.632812 261.746094 190.398438 269.863281 187.476562 C 276.335938 185.113281 283.070312 185.628906 289.851562 185.472656 C 294.421875 185.320312 298.945312 184.910156 303.46875 184.242188 C 306.859375 183.730469 311.070312 183.113281 313.742188 180.804688 C 315.128906 179.675781 315.542969 178.136719 315.695312 176.394531 C 315.746094 175.519531 315.386719 173.671875 316.363281 173.3125 C 317.339844 172.957031 319.394531 173.3125 320.578125 173.3125 C 326.125 173.417969 331.726562 173.671875 337.328125 174.03125 C 342.980469 174.238281 348.632812 174.800781 354.230469 175.625 C 355.15625 175.726562 356.03125 175.929688 356.902344 176.136719 C 357.417969 176.238281 358.238281 176.648438 358.445312 176.648438 C 358.652344 176.648438 358.394531 176.855469 358.445312 176.597656 C 358.496094 176.339844 358.1875 175.878906 358.1875 175.878906 C 358.1875 175.878906 358.238281 176.957031 358.238281 177.007812 C 358.34375 178.546875 358.652344 180.035156 359.0625 181.523438 C 359.574219 183.269531 360.5 184.859375 361.734375 186.191406 C 362.96875 187.476562 364.867188 185.527344 363.636719 184.292969 C 361.375 181.984375 361.324219 178.90625 360.910156 175.929688 C 360.707031 174.441406 359.265625 173.929688 357.929688 173.570312 C 353.152344 172.289062 347.910156 172.082031 342.980469 171.671875 C 336.8125 171.210938 330.648438 170.902344 324.480469 170.699219 L 318.164062 170.59375 C 316.621094 170.59375 314.769531 170.441406 313.742188 171.878906 C 312.714844 173.3125 313.179688 175.265625 312.871094 176.90625 C 312.5625 178.546875 311.070312 179.472656 309.375 180.085938 C 305.265625 181.523438 300.691406 181.984375 296.375 182.34375 C 289.082031 183.011719 281.527344 182.140625 274.230469 183.472656 C 266.933594 184.808594 258.867188 189.269531 253.371094 195.015625 C 247.871094 200.761719 243.710938 209.484375 240.269531 217.644531 C 232.199219 236.832031 220.382812 254.996094 206.5625 270.539062 C 204.96875 272.335938 203.324219 274.082031 201.679688 275.824219 C 200.035156 277.570312 202.347656 279.007812 203.582031 277.722656 Z M 203.582031 277.722656 " fill-opacity="1" fill-rule="nonzero"/><path fill="#000000" d="M 222.027344 330.109375 C 223.773438 333.546875 228.605469 327.695312 230.042969 326.464844 C 233.226562 323.695312 236.464844 320.976562 239.652344 318.101562 C 246.84375 311.6875 253.832031 304.761719 259.023438 296.605469 C 259.945312 295.117188 257.582031 293.730469 256.660156 295.21875 C 252.085938 302.453125 245.972656 308.660156 239.652344 314.457031 C 236.722656 317.125 233.742188 319.691406 230.761719 322.257812 L 227.0625 325.488281 L 225.316406 327.027344 L 224.542969 327.746094 L 224.183594 328.105469 C 223.773438 328.363281 223.824219 328.566406 224.390625 328.722656 C 223.621094 327.183594 221.257812 328.566406 222.027344 330.109375 Z M 222.027344 330.109375 " fill-opacity="1" fill-rule="nonzero"/><g clip-path="url(#df4525900f)"><path fill="#000000" d="M 363.429688 186.296875 C 370.007812 192.042969 377.355469 196.25 385.371094 199.582031 C 393.386719 202.917969 402.480469 205.535156 409.3125 211.539062 C 415.324219 216.875 420.101562 224.3125 421.59375 232.265625 C 421.851562 233.703125 422.003906 235.140625 422.210938 236.574219 C 423.496094 245.144531 424.726562 253.710938 425.910156 262.28125 C 427.605469 274.746094 429.25 287.164062 430.6875 299.632812 C 432.125 312.097656 433.359375 323.285156 434.078125 335.136719 C 434.644531 344.269531 435.15625 353.65625 431.5625 362.277344 C 426.0625 375.566406 412.191406 380.234375 398.832031 381.261719 C 386.757812 382.183594 374.734375 379.875 362.914062 377.464844 C 349.554688 374.640625 336.300781 371.253906 323.144531 367.664062 C 314.875 365.355469 306.601562 362.996094 298.429688 360.53125 L 297.199219 360.121094 C 295.503906 359.609375 294.785156 362.226562 296.480469 362.738281 C 302.492188 364.636719 308.605469 366.382812 314.667969 368.125 C 327.617188 371.769531 340.667969 375.257812 353.769531 378.234375 C 365.84375 380.953125 378.277344 383.773438 390.714844 384.183594 C 403.148438 384.59375 419.640625 382.234375 428.839844 371.769531 C 435.824219 363.816406 437.417969 353.195312 437.160156 342.933594 C 436.90625 332.671875 435.773438 320.921875 434.59375 309.996094 C 433.207031 296.964844 431.5625 283.929688 429.8125 270.949219 C 428.425781 260.742188 426.988281 250.53125 425.5 240.371094 C 425.136719 237.808594 424.777344 235.292969 424.367188 232.726562 C 423.648438 228.367188 422.105469 224.160156 419.898438 220.3125 C 415.582031 212.667969 408.902344 206.5625 400.886719 202.96875 C 392.820312 199.429688 384.289062 196.761719 376.582031 192.402344 C 372.574219 190.089844 368.824219 187.421875 365.332031 184.398438 C 364.046875 183.214844 362.09375 185.167969 363.429688 186.296875 Z M 363.429688 186.296875 " fill-opacity="1" fill-rule="nonzero"/></g><path fill="#000000" d="M 256.453125 275.671875 C 257.6875 264.382812 250.953125 297.683594 246.894531 308.25 L 258.816406 294.246094 C 258.816406 294.246094 255.425781 285.113281 256.453125 275.671875 Z M 256.453125 275.671875 " fill-opacity="1" fill-rule="nonzero"/><path fill="#000000" d="M 380.640625 275.773438 C 380.640625 275.773438 383.3125 320.050781 376.121094 328.722656 C 371.804688 333.800781 365.535156 336.828125 358.855469 336.984375 C 358.855469 336.984375 357.570312 338.46875 370.929688 337.753906 C 384.289062 337.035156 387.527344 342.421875 384.957031 324.773438 C 382.390625 307.121094 380.640625 275.773438 380.640625 275.773438 Z M 380.640625 275.773438 " fill-opacity="1" fill-rule="nonzero"/><path fill="#000000" d="M 319.292969 183.679688 C 328.4375 184.808594 337.6875 184.5 346.78125 182.910156 C 348.527344 182.601562 347.808594 179.984375 346.0625 180.292969 C 337.226562 181.832031 328.179688 182.035156 319.292969 180.960938 C 317.546875 180.753906 317.546875 183.472656 319.292969 183.679688 Z M 319.292969 183.679688 " fill-opacity="1" fill-rule="nonzero"/><path fill="#000000" d="M 305.933594 214.769531 C 326.691406 214.308594 347.449219 212.5625 368.003906 209.535156 C 369.699219 209.28125 368.980469 206.613281 367.28125 206.867188 C 346.988281 209.894531 326.484375 211.640625 305.933594 212.050781 C 304.1875 212.101562 304.1875 214.820312 305.933594 214.769531 Z M 305.933594 214.769531 " fill-opacity="1" fill-rule="nonzero"/><path fill="#000000" d="M 321.195312 336.519531 C 325.507812 347.191406 328.488281 358.324219 330.082031 369.714844 C 330.289062 371.460938 332.910156 370.742188 332.703125 368.996094 C 331.109375 357.609375 328.128906 346.472656 323.8125 335.800781 C 323.199219 334.210938 320.527344 334.878906 321.195312 336.519531 Z M 321.195312 336.519531 " fill-opacity="1" fill-rule="nonzero"/><path fill="#000000" d="M 144.75 242.578125 C 146.34375 240.730469 149.375 240.476562 151.582031 239.757812 C 154.152344 238.882812 156.722656 237.910156 159.1875 236.78125 C 164.222656 234.472656 168.949219 231.546875 173.316406 228.109375 C 174.703125 227.03125 172.804688 225.132812 171.417969 226.210938 C 166.945312 229.699219 162.117188 232.574219 156.925781 234.832031 C 154.410156 235.910156 151.839844 236.832031 149.21875 237.601562 C 146.90625 238.269531 144.441406 238.730469 142.847656 240.679688 C 141.253906 242.628906 143.617188 243.914062 144.75 242.578125 Z M 144.75 242.578125 " fill-opacity="1" fill-rule="nonzero"/><path fill="#000000" d="M 131.851562 201.636719 C 136.167969 201.6875 140.433594 202.507812 144.441406 204.097656 C 145.160156 204.304688 145.929688 203.894531 146.085938 203.125 C 146.238281 202.355469 145.878906 201.636719 145.109375 201.480469 C 140.84375 199.839844 136.375 198.96875 131.800781 198.917969 C 130.105469 198.917969 130.105469 201.636719 131.851562 201.636719 Z M 131.851562 201.636719 " fill-opacity="1" fill-rule="nonzero"/><path fill="#000000" d="M 282.707031 108.667969 C 283.683594 114.15625 284.351562 119.699219 284.710938 125.292969 C 285.019531 130.730469 284.710938 136.21875 285.175781 141.605469 C 285.742188 148.6875 288.824219 155.972656 293.910156 160.949219 C 298.996094 165.925781 303.621094 170.542969 309.785156 172.390625 C 317.496094 174.699219 324.789062 171.828125 331.214844 167.464844 C 335.324219 164.746094 339.074219 161.515625 342.414062 157.871094 C 343.699219 156.539062 344.828125 155.050781 345.753906 153.457031 C 346.578125 151.972656 344.210938 150.585938 343.390625 152.125 C 341.078125 156.28125 336.917969 159.769531 333.21875 162.644531 C 327.207031 167.3125 319.804688 171.980469 311.84375 170.132812 C 305.832031 168.695312 300.847656 163.925781 296.53125 159.71875 C 295.09375 158.332031 293.859375 157.152344 292.882812 155.511719 C 290.417969 151.253906 288.359375 146.941406 287.898438 141.914062 C 287.4375 136.886719 287.796875 130.832031 287.4375 125.292969 C 287.078125 119.492188 286.355469 113.695312 285.328125 107.949219 C 285.019531 106.257812 282.402344 106.976562 282.707031 108.667969 Z M 282.707031 108.667969 " fill-opacity="1" fill-rule="nonzero"/><path fill="#000000" d="M 353.101562 128.625 C 354.796875 126.113281 358.34375 122.519531 361.578125 124.933594 C 364.816406 127.34375 364.714844 131.039062 364.355469 134.066406 C 363.839844 137.449219 362.246094 140.582031 359.832031 142.992188 C 357.417969 145.453125 354.230469 148.277344 350.6875 148.738281 C 348.941406 148.945312 348.941406 151.664062 350.6875 151.457031 C 355.257812 150.894531 359.371094 147.609375 362.351562 144.273438 C 365.332031 140.992188 367.078125 136.785156 367.179688 132.371094 C 367.179688 128.472656 365.585938 123.289062 361.527344 121.855469 C 357.46875 120.417969 353.101562 123.753906 350.789062 127.242188 C 349.8125 128.730469 352.175781 130.0625 353.101562 128.625 Z M 353.101562 128.625 " fill-opacity="1" fill-rule="nonzero"/><path fill="#000000" d="M 361.425781 128.730469 C 358.90625 127.855469 356.699219 130.113281 355.257812 131.859375 C 353.769531 133.707031 352.640625 135.757812 351.867188 137.964844 C 351.664062 138.683594 352.125 139.402344 352.792969 139.605469 C 352.792969 139.605469 352.792969 139.605469 352.84375 139.605469 C 353.511719 139.8125 354.230469 139.453125 354.4375 138.785156 C 354.4375 138.734375 354.4375 138.734375 354.488281 138.683594 C 354.589844 138.425781 354.644531 138.222656 354.746094 138.015625 L 354.898438 137.605469 C 354.847656 137.757812 354.898438 137.605469 354.953125 137.554688 L 355.566406 136.269531 L 356.289062 135.039062 L 356.75 134.425781 L 356.902344 134.21875 C 356.902344 134.21875 357.160156 133.859375 357.007812 134.011719 C 357.570312 133.296875 358.238281 132.578125 358.90625 131.960938 L 359.214844 131.652344 C 359.113281 131.757812 359.265625 131.652344 359.320312 131.652344 L 359.679688 131.398438 L 359.78125 131.398438 L 360.140625 131.292969 L 360.550781 131.292969 C 360.347656 131.292969 360.65625 131.34375 360.707031 131.398438 C 361.425781 131.601562 362.195312 131.191406 362.351562 130.472656 C 362.554688 129.753906 362.144531 128.984375 361.425781 128.78125 Z M 361.425781 128.730469 " fill-opacity="1" fill-rule="nonzero"/><path fill="#000000" d="M 355.207031 135.65625 C 355.464844 135.757812 355.054688 135.554688 355.207031 135.65625 L 355.363281 135.757812 C 355.3125 135.65625 355.207031 135.65625 355.363281 135.757812 L 355.363281 135.859375 C 355.464844 135.910156 355.414062 135.910156 355.3125 135.757812 L 355.566406 136.167969 C 355.566406 136.21875 355.621094 136.324219 355.621094 136.375 C 355.621094 136.425781 355.671875 136.679688 355.722656 136.835938 L 355.722656 137.503906 C 355.722656 137.554688 355.671875 137.863281 355.722656 137.605469 C 355.773438 137.347656 355.671875 137.707031 355.671875 137.757812 C 355.621094 138.066406 355.515625 138.324219 355.414062 138.632812 L 355.3125 138.835938 L 355.105469 139.195312 L 354.953125 139.402344 L 354.644531 139.761719 L 354.488281 139.863281 L 354.386719 139.964844 L 354.285156 139.964844 L 354.078125 140.117188 C 353.410156 140.476562 353.203125 141.300781 353.5625 141.914062 C 353.5625 141.914062 353.5625 141.914062 353.5625 141.964844 C 353.976562 142.582031 354.746094 142.785156 355.414062 142.480469 C 357.007812 141.554688 358.085938 139.964844 358.34375 138.117188 C 358.652344 136.167969 358.035156 133.601562 355.875 132.988281 C 355.15625 132.78125 354.4375 133.140625 354.179688 133.859375 C 354.179688 133.859375 354.179688 133.910156 354.179688 133.910156 C 353.976562 134.628906 354.386719 135.398438 355.105469 135.65625 C 355.15625 135.65625 355.15625 135.65625 355.207031 135.65625 Z M 355.207031 135.65625 " fill-opacity="1" fill-rule="nonzero"/><path fill="#000000" d="M 293.242188 113.953125 L 293.960938 113.542969 L 294.167969 113.441406 C 294.320312 113.335938 293.910156 113.542969 294.117188 113.441406 L 294.476562 113.335938 L 295.246094 113.132812 C 295.453125 113.082031 295.246094 113.183594 295.195312 113.132812 L 296.734375 113.132812 L 297.148438 113.234375 L 297.507812 113.386719 C 297.710938 113.441406 297.507812 113.386719 297.457031 113.335938 L 297.660156 113.441406 L 298.433594 113.851562 C 299.046875 114.261719 299.871094 114.054688 300.28125 113.386719 C 300.589844 112.722656 300.382812 111.902344 299.769531 111.488281 C 297.351562 109.949219 294.269531 109.949219 291.90625 111.542969 C 291.238281 111.953125 291.03125 112.773438 291.390625 113.441406 C 291.753906 114.054688 292.574219 114.3125 293.242188 113.953125 C 293.242188 113.902344 293.242188 113.902344 293.242188 113.902344 Z M 293.242188 113.953125 " fill-opacity="1" fill-rule="nonzero"/><path fill="#000000" d="M 296.425781 124.007812 C 296.734375 124.316406 296.941406 124.726562 297.042969 125.136719 C 297.351562 126.007812 297.457031 126.984375 297.402344 127.90625 C 297.402344 128.320312 297.300781 128.730469 297.09375 129.089844 C 296.941406 129.449219 296.582031 129.753906 296.171875 129.804688 C 295.554688 129.804688 295.039062 129.5 294.730469 128.984375 C 294.320312 128.371094 294.117188 127.601562 294.167969 126.882812 C 294.167969 126.164062 294.320312 125.394531 294.578125 124.726562 C 294.628906 124.46875 294.730469 124.214844 294.9375 124.058594 C 295.144531 123.855469 295.453125 123.699219 295.761719 123.699219 C 296.015625 123.699219 296.222656 123.855469 296.425781 124.007812 Z M 296.425781 124.007812 " fill-opacity="1" fill-rule="nonzero"/><path fill="#000000" d="M 295.707031 124.726562 L 295.863281 124.984375 L 296.015625 125.238281 L 295.964844 125.238281 C 296.015625 125.292969 296.015625 125.34375 296.015625 125.394531 C 296.121094 125.546875 296.171875 125.753906 296.222656 125.957031 C 296.273438 126.164062 296.324219 126.421875 296.324219 126.625 C 296.375 127.085938 296.425781 127.550781 296.375 128.011719 L 296.375 128.164062 C 296.324219 128.265625 296.324219 128.371094 296.273438 128.472656 L 296.273438 128.625 C 296.324219 128.472656 296.222656 128.625 296.222656 128.675781 L 296.222656 128.78125 C 296.171875 128.882812 296.324219 128.730469 296.222656 128.78125 L 296.121094 128.882812 C 296.121094 128.882812 296.273438 128.78125 296.171875 128.832031 L 296.015625 128.933594 C 296.066406 128.882812 296.171875 128.882812 296.066406 128.882812 C 295.964844 128.882812 295.964844 128.832031 296.066406 128.882812 L 295.863281 128.882812 L 295.707031 128.730469 C 295.65625 128.675781 295.707031 128.730469 295.707031 128.78125 C 295.707031 128.832031 295.65625 128.675781 295.65625 128.625 C 295.554688 128.523438 295.503906 128.421875 295.453125 128.320312 C 295.453125 128.320312 295.398438 128.214844 295.453125 128.265625 C 295.503906 128.320312 295.398438 128.214844 295.398438 128.214844 C 295.398438 128.214844 295.347656 128.011719 295.347656 127.90625 C 295.347656 127.804688 295.296875 127.703125 295.246094 127.601562 L 295.246094 126.78125 C 295.246094 126.726562 295.296875 126.472656 295.246094 126.574219 C 295.195312 126.675781 295.296875 126.316406 295.347656 126.214844 C 295.398438 125.957031 295.453125 125.652344 295.554688 125.394531 C 295.554688 125.292969 295.605469 125.136719 295.65625 125.035156 C 295.707031 124.933594 295.65625 125.035156 295.65625 125.085938 C 295.65625 125.136719 295.707031 124.933594 295.605469 125.035156 C 295.503906 125.136719 295.707031 124.984375 295.707031 124.933594 C 295.707031 124.882812 295.605469 125.085938 295.707031 124.984375 C 295.707031 124.933594 295.707031 124.933594 295.761719 124.933594 C 295.554688 125.035156 295.761719 124.984375 295.8125 124.933594 C 295.863281 124.882812 295.605469 124.984375 295.65625 124.882812 L 295.964844 125.085938 C 296.425781 125.394531 297.042969 125.238281 297.300781 124.777344 C 297.300781 124.777344 297.351562 124.726562 297.351562 124.726562 C 297.609375 124.265625 297.457031 123.648438 296.992188 123.339844 C 296.375 122.828125 295.503906 122.777344 294.785156 123.136719 C 294.167969 123.496094 293.703125 124.058594 293.601562 124.777344 C 293.085938 126.0625 293.035156 127.445312 293.449219 128.730469 C 293.859375 130.011719 295.039062 131.34375 296.582031 130.988281 C 298.125 130.628906 298.484375 128.882812 298.484375 127.550781 C 298.484375 126.78125 298.378906 126.007812 298.175781 125.292969 C 298.019531 124.625 297.660156 124.007812 297.199219 123.496094 C 296.789062 123.085938 296.171875 123.085938 295.757812 123.496094 C 295.453125 123.855469 295.453125 124.367188 295.707031 124.726562 Z M 295.707031 124.726562 " fill-opacity="1" fill-rule="nonzero"/><path fill="#000000" d="M 323.558594 121.75 C 323.867188 122.058594 324.070312 122.417969 324.171875 122.828125 C 324.480469 123.699219 324.585938 124.675781 324.535156 125.597656 C 324.535156 126.007812 324.429688 126.421875 324.226562 126.78125 C 324.070312 127.136719 323.710938 127.445312 323.300781 127.496094 C 322.734375 127.550781 322.171875 127.242188 321.863281 126.726562 C 321.449219 126.113281 321.296875 125.34375 321.296875 124.625 C 321.296875 123.855469 321.449219 123.136719 321.707031 122.417969 C 321.757812 122.160156 321.863281 121.90625 322.066406 121.75 C 322.273438 121.546875 322.582031 121.445312 322.890625 121.445312 C 323.144531 121.445312 323.351562 121.597656 323.558594 121.75 Z M 323.558594 121.75 " fill-opacity="1" fill-rule="nonzero"/><path fill="#000000" d="M 322.835938 122.46875 L 322.992188 122.675781 L 323.144531 122.929688 C 323.199219 123.035156 323.09375 122.929688 323.09375 122.878906 C 323.144531 122.929688 323.144531 122.984375 323.144531 123.035156 C 323.25 123.238281 323.300781 123.445312 323.351562 123.648438 C 323.402344 123.855469 323.453125 124.058594 323.453125 124.265625 C 323.503906 124.726562 323.558594 125.1875 323.503906 125.652344 L 323.503906 125.804688 C 323.453125 125.90625 323.453125 126.007812 323.402344 126.113281 L 323.402344 126.265625 C 323.402344 126.113281 323.351562 126.265625 323.351562 126.265625 C 323.351562 126.316406 323.351562 126.316406 323.300781 126.367188 C 323.25 126.523438 323.402344 126.316406 323.300781 126.367188 L 323.199219 126.472656 C 323.199219 126.472656 323.300781 126.421875 323.25 126.472656 L 323.144531 126.472656 L 322.992188 126.367188 C 322.941406 126.367188 322.835938 126.265625 322.941406 126.316406 L 322.785156 126.214844 C 322.785156 126.164062 322.734375 126.164062 322.734375 126.113281 L 322.53125 125.804688 C 322.53125 125.804688 322.476562 125.652344 322.53125 125.753906 L 322.53125 125.652344 C 322.53125 125.546875 322.476562 125.496094 322.476562 125.394531 C 322.425781 125.292969 322.425781 125.136719 322.375 125.035156 L 322.375 124.214844 C 322.375 124.164062 322.425781 123.90625 322.375 124.058594 C 322.425781 123.90625 322.425781 123.804688 322.425781 123.648438 C 322.53125 123.394531 322.582031 123.136719 322.683594 122.878906 C 322.683594 122.777344 322.734375 122.625 322.835938 122.46875 C 322.785156 122.417969 322.785156 122.519531 322.734375 122.519531 C 322.683594 122.519531 322.835938 122.417969 322.734375 122.46875 L 322.835938 122.46875 C 322.941406 122.367188 322.734375 122.570312 322.835938 122.46875 C 322.835938 122.367188 322.890625 122.46875 322.890625 122.417969 C 322.890625 122.367188 322.890625 122.46875 322.941406 122.46875 C 322.992188 122.46875 322.734375 122.46875 322.785156 122.417969 L 323.09375 122.625 C 323.558594 122.878906 324.171875 122.726562 324.480469 122.265625 C 324.738281 121.75 324.585938 121.136719 324.121094 120.828125 C 323.453125 120.367188 322.632812 120.316406 321.914062 120.675781 C 321.296875 120.980469 320.886719 121.597656 320.730469 122.265625 C 320.269531 123.546875 320.21875 124.933594 320.578125 126.214844 C 320.988281 127.496094 322.167969 128.882812 323.710938 128.472656 C 325.253906 128.0625 325.613281 126.421875 325.613281 125.035156 C 325.613281 124.265625 325.507812 123.496094 325.253906 122.777344 C 325.148438 122.109375 324.789062 121.496094 324.328125 121.03125 C 323.96875 120.570312 323.351562 120.46875 322.890625 120.828125 C 322.425781 121.1875 322.324219 121.800781 322.683594 122.265625 C 322.734375 122.367188 322.785156 122.417969 322.890625 122.46875 Z M 322.835938 122.46875 " fill-opacity="1" fill-rule="nonzero"/><path fill="#000000" d="M 324.945312 109.539062 C 322.167969 108.308594 318.984375 108.359375 316.3125 109.746094 C 315.695312 110.105469 315.4375 110.925781 315.851562 111.59375 C 316.261719 112.207031 317.082031 112.414062 317.699219 112.054688 L 318.109375 111.847656 C 317.855469 112.003906 318.265625 111.796875 318.316406 111.796875 L 319.191406 111.542969 L 319.753906 111.542969 L 320.578125 111.4375 L 321.449219 111.4375 C 321.5 111.4375 322.015625 111.488281 321.65625 111.4375 L 322.015625 111.4375 L 322.835938 111.644531 L 323.300781 111.796875 L 323.558594 111.902344 C 324.226562 112.257812 325.046875 112.003906 325.40625 111.386719 C 325.714844 110.824219 325.613281 109.847656 324.945312 109.539062 Z M 324.945312 109.539062 " fill-opacity="1" fill-rule="nonzero"/><path fill="#000000" d="M 303.3125 128.933594 C 302.851562 130.011719 302.183594 130.988281 301.410156 131.859375 C 300.539062 132.832031 299.871094 133.960938 299.355469 135.140625 C 298.277344 137.808594 299.460938 140.273438 300.796875 142.53125 C 302.132812 144.789062 304.082031 142.683594 303.160156 141.195312 C 302.542969 140.273438 302.078125 139.246094 301.71875 138.222656 C 301.515625 137.296875 301.71875 136.269531 302.183594 135.449219 C 303.3125 133.398438 305.109375 131.859375 305.984375 129.652344 C 306.191406 128.933594 305.726562 128.164062 305.007812 127.960938 C 304.289062 127.804688 303.519531 128.214844 303.3125 128.933594 Z M 303.3125 128.933594 " fill-opacity="1" fill-rule="nonzero"/><path fill="#000000" d="M 308.089844 152.636719 C 312.765625 152.894531 317.289062 151.253906 320.78125 148.175781 C 321.296875 147.609375 321.296875 146.789062 320.78125 146.222656 C 320.21875 145.761719 319.445312 145.761719 318.882812 146.222656 C 315.902344 148.839844 312.046875 150.175781 308.089844 149.917969 C 307.320312 149.917969 306.753906 150.484375 306.703125 151.253906 C 306.753906 152.023438 307.320312 152.585938 308.089844 152.636719 Z M 308.089844 152.636719 " fill-opacity="1" fill-rule="nonzero"/><path fill="#000000" d="M 285.535156 108.71875 C 285.125 96.96875 294.167969 87.015625 305.882812 86.246094 C 307.628906 86.144531 307.679688 83.425781 305.882812 83.527344 C 292.675781 84.347656 282.453125 95.480469 282.8125 108.71875 C 282.863281 110.464844 285.585938 110.464844 285.535156 108.71875 Z M 285.535156 108.71875 " fill-opacity="1" fill-rule="nonzero"/><path fill="#000000" d="M 309.734375 84.195312 C 311.429688 78.242188 319.34375 80.089844 322.835938 83.015625 C 327.410156 86.761719 329.515625 92.761719 331.519531 98.097656 C 333.523438 103.433594 335.683594 109.589844 338.457031 115.082031 C 340.769531 119.648438 343.800781 124.265625 348.683594 126.421875 C 350.277344 127.136719 351.664062 124.777344 350.070312 124.058594 C 345.546875 122.109375 342.929688 117.902344 340.769531 113.695312 C 338.613281 109.488281 336.453125 103.484375 334.5 98.253906 C 331.417969 90.144531 327.460938 79.117188 317.496094 77.628906 C 313.179688 77.011719 308.347656 79.0625 307.0625 83.476562 C 306.601562 85.167969 309.222656 85.886719 309.734375 84.195312 Z M 309.734375 84.195312 " fill-opacity="1" fill-rule="nonzero"/><path fill="#000000" d="M 314.257812 87.476562 C 318.46875 84.863281 323.96875 85.683594 327.308594 89.324219 C 328.488281 90.660156 330.390625 88.710938 329.261719 87.425781 C 325.253906 82.914062 318.007812 81.886719 312.871094 85.117188 C 311.429688 86.042969 312.765625 88.402344 314.257812 87.476562 Z M 314.257812 87.476562 " fill-opacity="1" fill-rule="nonzero"/><path fill="#000000" d="M 306.5 78.652344 C 311.121094 70.289062 320.113281 66.082031 328.695312 62.902344 C 330.339844 62.285156 329.621094 59.671875 327.976562 60.285156 C 318.726562 63.722656 309.117188 68.289062 304.136719 77.320312 C 303.3125 78.808594 305.675781 80.191406 306.5 78.652344 Z M 306.5 78.652344 " fill-opacity="1" fill-rule="nonzero"/><path fill="#000000" d="M 356.699219 160.027344 C 356.699219 157.769531 357.007812 155.460938 358.597656 153.714844 C 360.191406 151.972656 362.300781 150.996094 364.148438 149.714844 C 371.855469 144.582031 377.148438 137.09375 381.105469 128.78125 C 386.242188 118.007812 385.625 105.128906 382.390625 93.890625 C 380.539062 87.785156 377.96875 81.9375 374.683594 76.5 C 372.011719 72.035156 368.980469 67.417969 364.714844 64.289062 C 356.957031 58.542969 346.113281 56.128906 336.609375 56.078125 C 334.757812 56.078125 332.960938 56.234375 331.160156 56.234375 C 329.210938 56.179688 327.257812 56.285156 325.304688 56.4375 C 309.890625 57.824219 294.527344 64.390625 286.253906 77.988281 C 283.222656 82.964844 280.960938 88.660156 279.265625 94.199219 C 278.03125 98.304688 277.109375 102.664062 277.261719 106.921875 C 277.46875 111.953125 279.214844 116.671875 283.015625 120.007812 C 283.632812 120.570312 284.300781 121.085938 285.019531 121.597656 C 286.410156 122.625 287.796875 120.261719 286.355469 119.238281 C 283.273438 117.03125 281.167969 113.796875 280.34375 110.105469 C 278.546875 101.28125 282.605469 91.53125 286.253906 83.734375 C 289.953125 75.78125 296.121094 69.316406 303.878906 65.210938 C 309.890625 62.132812 316.464844 60.132812 323.199219 59.414062 C 326.28125 59.003906 329.363281 59.054688 332.445312 58.953125 C 336.8125 58.847656 340.976562 58.847656 345.34375 59.617188 C 349.710938 60.386719 355.15625 61.980469 359.574219 64.289062 C 363.996094 66.597656 366.921875 69.777344 369.699219 73.832031 C 373.191406 78.859375 376.070312 84.296875 378.226562 90.042969 C 382.132812 100.5625 383.929688 113.441406 380.128906 124.214844 C 378.125 129.703125 375.195312 134.835938 371.496094 139.402344 C 369.285156 142.171875 366.667969 144.632812 363.738281 146.6875 C 360.089844 149.25 355.566406 151.253906 354.386719 155.972656 C 354.078125 157.308594 353.976562 158.640625 353.976562 160.027344 C 354.027344 161.769531 356.75 161.769531 356.699219 160.027344 Z M 356.699219 160.027344 " fill-opacity="1" fill-rule="nonzero"/><path fill="#000000" d="M 377.609375 83.785156 C 379.253906 80.65625 382.441406 78.859375 385.882812 78.449219 C 389.324219 78.039062 393.488281 79.421875 396.671875 81.425781 C 403.558594 85.785156 408.800781 92.660156 410.648438 100.613281 C 414.65625 117.75 405.613281 134.320312 403.25 150.945312 C 402.121094 159 402.066406 167.824219 407.773438 174.238281 C 408.953125 175.519531 410.855469 173.621094 409.671875 172.289062 C 403.867188 165.773438 404.996094 155.871094 406.539062 147.917969 C 408.285156 138.632812 411.574219 129.753906 413.269531 120.46875 C 414.707031 112.464844 415.015625 103.898438 412.191406 96.148438 C 409.210938 88.351562 403.507812 81.9375 396.160156 77.988281 C 389.222656 74.394531 379.304688 74.753906 375.246094 82.398438 C 374.476562 83.9375 376.789062 85.324219 377.609375 83.785156 Z M 377.609375 83.785156 " fill-opacity="1" fill-rule="nonzero"/><path fill="#000000" d="M 377.148438 83.476562 C 380.640625 83.015625 383.777344 87.066406 385.472656 89.632812 C 387.167969 92.199219 388.503906 95.226562 388.710938 98.253906 C 388.863281 100.816406 388.453125 103.382812 387.527344 105.796875 C 386.808594 107.691406 385.625 110.308594 383.519531 110.976562 C 381.414062 111.644531 382.542969 114.105469 384.238281 113.59375 C 387.011719 112.722656 388.65625 110.105469 389.683594 107.589844 C 390.714844 105.078125 391.742188 101.125 391.433594 97.894531 C 391.125 94.660156 389.378906 90.351562 387.167969 87.273438 C 384.957031 84.195312 381.308594 80.191406 377.148438 80.757812 C 375.453125 80.960938 375.402344 83.683594 377.148438 83.476562 Z M 377.148438 83.476562 " fill-opacity="1" fill-rule="nonzero"/><path fill="#000000" d="M 372.523438 140.582031 C 372.679688 150.074219 375.8125 159.308594 381.464844 166.953125 C 387.066406 174.390625 395.441406 181.265625 405.203125 181.472656 C 406.949219 181.523438 406.949219 178.804688 405.203125 178.753906 C 396.160156 178.546875 388.195312 171.722656 383.210938 164.695312 C 378.175781 157.664062 375.402344 149.25 375.246094 140.582031 C 375.195312 138.835938 372.472656 138.835938 372.523438 140.582031 Z M 372.523438 140.582031 " fill-opacity="1" fill-rule="nonzero"/><path fill="#000000" d="M 390.097656 157.71875 C 391.945312 162.796875 394.359375 167.824219 398.164062 171.773438 C 401.964844 175.726562 406.488281 177.984375 411.675781 178.136719 C 413.421875 178.1875 413.421875 175.46875 411.675781 175.417969 C 401.605469 175.109375 395.800781 165.414062 392.71875 157 C 392.101562 155.410156 389.480469 156.074219 390.097656 157.71875 Z M 390.097656 157.71875 " fill-opacity="1" fill-rule="nonzero"/><path fill="#000000" d="M 340.050781 158.433594 C 340.050781 158.433594 328.847656 171.160156 314.769531 176.90625 L 313.28125 171.878906 C 313.28125 171.878906 325.765625 169.464844 327.359375 168.492188 C 331.46875 165.875 340.050781 158.433594 340.050781 158.433594 Z M 340.050781 158.433594 " fill-opacity="1" fill-rule="nonzero"/><path fill="#000000" d="M 356.492188 149.355469 L 356.492188 149.199219 L 355.824219 150.378906 L 355.980469 150.277344 L 354.953125 150.433594 L 355.15625 150.433594 L 354.335938 149.816406 C 354.179688 149.558594 354.128906 150.84375 354.078125 151.097656 C 354.078125 151.558594 354.027344 152.023438 353.976562 152.484375 C 353.871094 153.511719 353.769531 154.585938 353.71875 155.613281 C 353.5625 157.613281 353.460938 159.5625 353.460938 161.566406 C 353.410156 165.617188 353.769531 169.722656 354.4375 173.726562 C 354.746094 175.46875 357.367188 174.75 357.058594 173.007812 C 356.234375 167.925781 355.980469 162.746094 356.289062 157.613281 C 356.441406 155.050781 356.75 152.484375 356.957031 149.917969 C 357.007812 148.996094 356.699219 147.96875 355.671875 147.765625 C 354.796875 147.609375 353.976562 148.175781 353.820312 148.996094 C 353.820312 149.097656 353.769531 149.199219 353.769531 149.304688 C 353.667969 151.046875 356.390625 151.046875 356.492188 149.304688 Z M 356.492188 149.355469 " fill-opacity="1" fill-rule="nonzero"/><path fill="#000000" d="M 355.671875 169.621094 C 349.914062 169.621094 345.242188 163.617188 345.242188 156.332031 C 345.242188 150.996094 347.65625 146.222656 351.457031 144.121094 C 352.125 143.761719 352.949219 144.019531 353.308594 144.632812 C 353.667969 145.25 353.460938 146.070312 352.84375 146.480469 C 352.84375 146.480469 352.84375 146.480469 352.792969 146.480469 C 349.863281 148.121094 347.964844 151.972656 347.964844 156.332031 C 347.964844 162.128906 351.40625 166.902344 355.671875 166.902344 C 359.933594 166.902344 363.378906 162.128906 363.378906 156.332031 C 363.378906 151.972656 361.476562 148.121094 358.546875 146.480469 C 357.878906 146.121094 357.625 145.300781 357.984375 144.632812 C 358.394531 144.019531 359.164062 143.8125 359.832031 144.121094 C 363.636719 146.222656 366.101562 150.996094 366.101562 156.332031 C 366.101562 163.617188 361.425781 169.621094 355.671875 169.621094 Z M 355.671875 169.621094 " fill-opacity="1" fill-rule="nonzero"/><path fill="#000000" d="M 291.238281 169.621094 C 285.636719 169.621094 281.066406 163.769531 281.066406 156.640625 C 281.066406 152.328125 282.761719 148.277344 285.585938 145.867188 L 286.5625 146.839844 L 287.4375 147.867188 C 285.125 149.816406 283.789062 153.101562 283.789062 156.640625 C 283.789062 162.285156 287.128906 166.902344 291.238281 166.902344 C 293.652344 166.902344 295.964844 165.257812 297.351562 162.488281 L 299.765625 163.769531 C 297.917969 167.414062 294.730469 169.621094 291.238281 169.621094 Z M 291.238281 169.621094 " fill-opacity="1" fill-rule="nonzero"/><path fill="#000000" d="M 289.851562 309.277344 C 305.777344 308.300781 321.808594 309.585938 337.378906 313.074219 C 339.074219 313.484375 339.792969 310.867188 338.097656 310.457031 C 322.273438 306.917969 306.035156 305.582031 289.851562 306.558594 C 288.105469 306.660156 288.050781 309.378906 289.851562 309.277344 Z M 289.851562 309.277344 " fill-opacity="1" fill-rule="nonzero"/><path fill="#ffe397" d="M 248.644531 158.488281 C 248.644531 159.339844 248.601562 160.191406 248.515625 161.042969 C 248.433594 161.890625 248.308594 162.734375 248.140625 163.570312 C 247.972656 164.410156 247.765625 165.234375 247.519531 166.054688 C 247.269531 166.871094 246.984375 167.671875 246.65625 168.460938 C 246.328125 169.25 245.964844 170.019531 245.5625 170.773438 C 245.15625 171.527344 244.71875 172.257812 244.242188 172.96875 C 243.769531 173.675781 243.261719 174.363281 242.71875 175.019531 C 242.175781 175.679688 241.601562 176.3125 240.996094 176.917969 C 240.394531 177.519531 239.761719 178.09375 239.101562 178.632812 C 238.4375 179.175781 237.753906 179.683594 237.042969 180.15625 C 236.332031 180.632812 235.597656 181.070312 234.84375 181.472656 C 234.089844 181.875 233.320312 182.238281 232.53125 182.566406 C 231.738281 182.894531 230.9375 183.179688 230.117188 183.429688 C 229.300781 183.675781 228.472656 183.882812 227.632812 184.050781 C 226.792969 184.214844 225.949219 184.339844 225.097656 184.425781 C 224.25 184.507812 223.394531 184.550781 222.539062 184.550781 C 221.6875 184.550781 220.832031 184.507812 219.984375 184.425781 C 219.132812 184.339844 218.289062 184.214844 217.449219 184.050781 C 216.609375 183.882812 215.78125 183.675781 214.964844 183.429688 C 214.144531 183.179688 213.34375 182.894531 212.550781 182.566406 C 211.761719 182.238281 210.992188 181.875 210.238281 181.472656 C 209.484375 181.070312 208.75 180.632812 208.039062 180.15625 C 207.328125 179.683594 206.644531 179.175781 205.980469 178.632812 C 205.320312 178.09375 204.6875 177.519531 204.085938 176.917969 C 203.480469 176.3125 202.90625 175.679688 202.363281 175.019531 C 201.820312 174.363281 201.3125 173.675781 200.839844 172.96875 C 200.363281 172.257812 199.925781 171.527344 199.519531 170.773438 C 199.117188 170.019531 198.753906 169.25 198.425781 168.460938 C 198.097656 167.671875 197.8125 166.871094 197.5625 166.050781 C 197.316406 165.234375 197.105469 164.410156 196.941406 163.570312 C 196.773438 162.734375 196.648438 161.890625 196.566406 161.042969 C 196.480469 160.191406 196.4375 159.339844 196.4375 158.488281 C 196.4375 157.632812 196.480469 156.78125 196.566406 155.933594 C 196.648438 155.082031 196.773438 154.238281 196.941406 153.402344 C 197.105469 152.566406 197.316406 151.738281 197.5625 150.921875 C 197.8125 150.105469 198.097656 149.300781 198.425781 148.511719 C 198.753906 147.722656 199.117188 146.953125 199.519531 146.199219 C 199.925781 145.449219 200.363281 144.714844 200.839844 144.007812 C 201.3125 143.296875 201.820312 142.613281 202.363281 141.953125 C 202.90625 141.292969 203.480469 140.660156 204.085938 140.058594 C 204.6875 139.453125 205.320312 138.878906 205.980469 138.339844 C 206.644531 137.796875 207.328125 137.289062 208.039062 136.816406 C 208.75 136.339844 209.484375 135.902344 210.238281 135.5 C 210.992188 135.097656 211.761719 134.734375 212.550781 134.40625 C 213.34375 134.082031 214.144531 133.792969 214.964844 133.546875 C 215.78125 133.296875 216.609375 133.089844 217.449219 132.925781 C 218.289062 132.757812 219.132812 132.632812 219.984375 132.546875 C 220.832031 132.464844 221.6875 132.421875 222.539062 132.421875 C 223.394531 132.421875 224.25 132.464844 225.097656 132.546875 C 225.949219 132.632812 226.792969 132.757812 227.632812 132.925781 C 228.472656 133.089844 229.300781 133.296875 230.117188 133.546875 C 230.9375 133.792969 231.738281 134.082031 232.53125 134.40625 C 233.320312 134.734375 234.089844 135.097656 234.84375 135.5 C 235.597656 135.902344 236.332031 136.339844 237.042969 136.816406 C 237.753906 137.289062 238.4375 137.796875 239.101562 138.339844 C 239.761719 138.878906 240.394531 139.453125 240.996094 140.058594 C 241.601562 140.660156 242.175781 141.292969 242.71875 141.953125 C 243.261719 142.613281 243.769531 143.296875 244.242188 144.007812 C 244.71875 144.714844 245.15625 145.449219 245.5625 146.199219 C 245.964844 146.953125 246.328125 147.722656 246.65625 148.511719 C 246.984375 149.300781 247.269531 150.105469 247.519531 150.921875 C 247.765625 151.738281 247.972656 152.566406 248.140625 153.402344 C 248.308594 154.238281 248.433594 155.082031 248.515625 155.933594 C 248.601562 156.78125 248.644531 157.632812 248.644531 158.488281 Z M 248.644531 158.488281 " fill-opacity="1" fill-rule="nonzero"/><path fill="#000000" d="M 222.539062 185.9375 C 207.382812 185.9375 195.050781 173.621094 195.050781 158.488281 C 195.050781 143.351562 207.382812 131.039062 222.539062 131.039062 C 237.699219 131.039062 250.03125 143.351562 250.03125 158.488281 C 250.03125 173.621094 237.699219 185.9375 222.539062 185.9375 Z M 222.539062 133.808594 C 208.875 133.808594 197.773438 144.890625 197.773438 158.539062 C 197.773438 172.1875 208.875 183.269531 222.539062 183.269531 C 236.207031 183.269531 247.308594 172.1875 247.308594 158.539062 C 247.308594 158.539062 247.308594 158.488281 247.308594 158.488281 C 247.253906 144.839844 236.207031 133.808594 222.539062 133.808594 Z M 222.539062 133.808594 " fill-opacity="1" fill-rule="nonzero"/><path fill="#000000" d="M 229.734375 149.046875 C 227.0625 146.480469 223.414062 144.738281 219.867188 146.738281 C 216.324219 148.738281 215.398438 152.074219 216.890625 155.101562 C 218.378906 158.128906 222.078125 158.332031 225.007812 159.460938 C 226.292969 159.976562 227.269531 161.15625 227.472656 162.539062 C 227.730469 163.925781 227.113281 164.953125 226.085938 165.925781 C 225.058594 166.902344 223.570312 167.207031 221.925781 166.746094 C 220.125 166.234375 218.53125 165.15625 217.351562 163.71875 C 216.324219 162.335938 213.960938 163.667969 215.039062 165.054688 C 216.992188 167.722656 220.175781 169.671875 223.570312 169.722656 C 226.960938 169.773438 229.734375 167.054688 230.195312 164.078125 C 230.609375 160.847656 228.65625 157.820312 225.574219 156.792969 C 223.261719 156.023438 218.53125 155.714844 219.046875 152.175781 C 219.355469 150.484375 220.589844 149.148438 222.234375 148.6875 C 224.441406 148.121094 226.34375 149.507812 227.832031 150.945312 C 229.324219 152.382812 231.019531 150.226562 229.734375 149.046875 Z M 229.734375 149.046875 " fill-opacity="1" fill-rule="nonzero"/><path fill="#000000" d="M 221.769531 143.503906 L 221.769531 146.070312 C 221.769531 146.429688 221.925781 146.789062 222.128906 147.046875 C 222.386719 147.300781 222.746094 147.40625 223.105469 147.40625 C 223.464844 147.40625 223.824219 147.300781 224.082031 147.046875 C 224.339844 146.789062 224.492188 146.429688 224.492188 146.070312 L 224.492188 143.503906 C 224.492188 143.144531 224.339844 142.785156 224.082031 142.53125 C 223.515625 142.070312 222.695312 142.070312 222.128906 142.53125 C 221.925781 142.785156 221.769531 143.144531 221.769531 143.503906 Z M 221.769531 143.503906 " fill-opacity="1" fill-rule="nonzero"/><path fill="#000000" d="M 221.769531 169.054688 L 221.769531 173.519531 C 221.617188 174.289062 222.128906 175.007812 222.847656 175.160156 C 223.621094 175.316406 224.339844 174.800781 224.492188 174.085938 C 224.542969 173.929688 224.542969 173.726562 224.492188 173.570312 L 224.492188 169.105469 C 224.339844 168.335938 223.621094 167.875 222.847656 168.03125 C 222.335938 168.082031 221.871094 168.492188 221.769531 169.054688 Z M 221.769531 169.054688 " fill-opacity="1" fill-rule="nonzero"/><path fill="#ffe397" d="M 265.445312 67.316406 C 265.445312 68.34375 265.34375 69.359375 265.144531 70.367188 C 264.941406 71.375 264.644531 72.355469 264.25 73.304688 C 263.859375 74.253906 263.375 75.15625 262.804688 76.007812 C 262.230469 76.863281 261.582031 77.652344 260.855469 78.378906 C 260.125 79.105469 259.335938 79.753906 258.480469 80.328125 C 257.625 80.898438 256.722656 81.378906 255.769531 81.773438 C 254.820312 82.164062 253.839844 82.460938 252.832031 82.664062 C 251.820312 82.863281 250.800781 82.964844 249.773438 82.964844 C 248.746094 82.964844 247.726562 82.863281 246.714844 82.664062 C 245.707031 82.460938 244.726562 82.164062 243.777344 81.773438 C 242.824219 81.378906 241.921875 80.898438 241.066406 80.328125 C 240.210938 79.753906 239.417969 79.105469 238.691406 78.378906 C 237.964844 77.652344 237.316406 76.863281 236.742188 76.007812 C 236.171875 75.15625 235.6875 74.253906 235.292969 73.304688 C 234.902344 72.355469 234.605469 71.375 234.402344 70.367188 C 234.203125 69.359375 234.101562 68.34375 234.101562 67.316406 C 234.101562 66.289062 234.203125 65.269531 234.402344 64.261719 C 234.605469 63.253906 234.902344 62.277344 235.292969 61.328125 C 235.6875 60.378906 236.171875 59.476562 236.742188 58.621094 C 237.316406 57.765625 237.964844 56.976562 238.691406 56.25 C 239.417969 55.523438 240.210938 54.875 241.066406 54.304688 C 241.921875 53.734375 242.824219 53.25 243.777344 52.859375 C 244.726562 52.464844 245.707031 52.167969 246.714844 51.96875 C 247.726562 51.765625 248.746094 51.667969 249.773438 51.667969 C 250.800781 51.667969 251.820312 51.765625 252.832031 51.96875 C 253.839844 52.167969 254.820312 52.464844 255.769531 52.859375 C 256.722656 53.25 257.625 53.734375 258.480469 54.304688 C 259.335938 54.875 260.125 55.523438 260.855469 56.25 C 261.582031 56.976562 262.230469 57.765625 262.804688 58.621094 C 263.375 59.476562 263.859375 60.378906 264.25 61.328125 C 264.644531 62.277344 264.941406 63.253906 265.144531 64.261719 C 265.34375 65.269531 265.445312 66.289062 265.445312 67.316406 Z M 265.445312 67.316406 " fill-opacity="1" fill-rule="nonzero"/><path fill="#000000" d="M 249.773438 84.296875 C 240.371094 84.296875 232.714844 76.652344 232.714844 67.261719 C 232.714844 57.875 240.371094 50.230469 249.773438 50.230469 C 259.175781 50.230469 266.832031 57.875 266.832031 67.261719 C 266.832031 67.261719 266.832031 67.316406 266.832031 67.316406 C 266.78125 76.703125 259.175781 84.296875 249.773438 84.296875 Z M 249.773438 53 C 241.859375 53 235.4375 59.414062 235.4375 67.316406 C 235.4375 75.214844 241.859375 81.628906 249.773438 81.628906 C 257.6875 81.628906 264.109375 75.214844 264.109375 67.316406 C 264.109375 59.414062 257.6875 53 249.773438 53 Z M 249.773438 53 " fill-opacity="1" fill-rule="nonzero"/><path fill="#000000" d="M 254.5 61.210938 C 252.703125 59.515625 250.234375 58.4375 247.871094 59.773438 C 245.507812 61.105469 244.890625 63.46875 245.917969 65.519531 C 246.433594 66.492188 247.308594 67.210938 248.335938 67.570312 C 249.257812 67.929688 250.234375 68.035156 251.109375 68.390625 C 251.675781 68.699219 252.136719 69.214844 252.238281 69.878906 C 252.289062 70.085938 252.238281 69.675781 252.238281 69.929688 L 252.238281 70.238281 C 252.238281 70.445312 252.289062 70.035156 252.238281 70.289062 C 252.1875 70.546875 252.1875 70.445312 252.1875 70.546875 C 252.136719 70.648438 252.085938 70.753906 251.984375 70.855469 L 251.519531 71.367188 L 251.058594 71.726562 L 250.953125 71.726562 C 250.902344 71.777344 250.492188 71.828125 250.75 71.828125 C 250.339844 71.882812 249.925781 71.828125 249.566406 71.675781 C 248.589844 71.417969 247.769531 70.855469 247.152344 70.085938 C 246.742188 69.46875 245.917969 69.265625 245.304688 69.625 C 244.636719 69.984375 244.429688 70.804688 244.789062 71.417969 C 244.789062 71.417969 244.789062 71.417969 244.789062 71.472656 C 246.125 73.316406 248.179688 74.445312 250.441406 74.550781 C 252.445312 74.550781 254.601562 72.753906 254.910156 70.753906 C 255.21875 68.546875 253.882812 66.390625 251.777344 65.671875 C 250.851562 65.46875 249.980469 65.210938 249.105469 64.902344 C 248.847656 64.800781 248.589844 64.648438 248.4375 64.390625 C 248.335938 64.289062 248.230469 64.132812 248.230469 63.980469 L 248.230469 63.621094 C 248.335938 62.800781 248.949219 62.082031 249.773438 61.875 C 250.851562 61.621094 251.828125 62.339844 252.546875 63.109375 C 253.265625 63.878906 255.785156 62.390625 254.5 61.210938 Z M 254.5 61.210938 " fill-opacity="1" fill-rule="nonzero"/><path fill="#000000" d="M 248.746094 58.285156 L 248.746094 59.824219 C 248.746094 60.03125 248.796875 60.183594 248.898438 60.335938 C 248.949219 60.492188 249.054688 60.695312 249.15625 60.800781 C 249.257812 60.953125 249.464844 61.003906 249.617188 61.054688 C 249.773438 61.15625 249.925781 61.210938 250.132812 61.210938 C 250.492188 61.15625 250.851562 61.054688 251.109375 60.800781 C 251.316406 60.542969 251.46875 60.183594 251.46875 59.824219 L 251.46875 58.285156 C 251.519531 58.132812 251.46875 57.925781 251.367188 57.773438 C 251.316406 57.617188 251.210938 57.464844 251.109375 57.363281 C 250.953125 57.207031 250.800781 57.105469 250.648438 57.054688 C 250.492188 56.949219 250.285156 56.949219 250.132812 56.949219 C 249.773438 56.949219 249.414062 57.105469 249.15625 57.363281 C 248.898438 57.617188 248.746094 57.925781 248.746094 58.285156 Z M 248.746094 58.285156 " fill-opacity="1" fill-rule="nonzero"/><path fill="#000000" d="M 248.746094 73.625 L 248.746094 76.292969 C 248.746094 77.0625 249.363281 77.679688 250.132812 77.679688 C 250.492188 77.679688 250.851562 77.523438 251.109375 77.269531 C 251.367188 77.011719 251.46875 76.652344 251.46875 76.292969 L 251.46875 73.625 C 251.417969 72.855469 250.800781 72.292969 250.03125 72.292969 C 249.722656 72.292969 249.414062 72.445312 249.15625 72.652344 C 248.898438 72.90625 248.746094 73.265625 248.746094 73.625 Z M 248.746094 73.625 " fill-opacity="1" fill-rule="nonzero"/><g clip-path="url(#3e3ad934dd)"><path fill="#000000" d="M 199.367188 122.929688 L 46.148438 122.929688 C 42.707031 122.929688 39.929688 120.160156 39.929688 116.722656 L 39.929688 12.777344 C 39.980469 9.339844 42.707031 6.621094 46.148438 6.566406 L 199.367188 6.566406 C 202.808594 6.621094 205.535156 9.339844 205.585938 12.777344 L 205.585938 116.722656 C 205.585938 120.160156 202.808594 122.929688 199.367188 122.929688 Z M 46.148438 9.289062 C 44.246094 9.339844 42.707031 10.878906 42.652344 12.777344 L 42.652344 116.722656 C 42.652344 118.671875 44.195312 120.210938 46.148438 120.210938 L 199.367188 120.210938 C 201.320312 120.210938 202.863281 118.671875 202.863281 116.722656 L 202.863281 12.777344 C 202.808594 10.878906 201.269531 9.339844 199.367188 9.289062 Z M 46.148438 9.289062 " fill-opacity="1" fill-rule="nonzero"/></g><path fill="#6293f1" d="M 64.234375 43.046875 L 74.046875 43.046875 L 74.046875 63.878906 L 64.234375 63.878906 Z M 64.234375 43.046875 " fill-opacity="1" fill-rule="nonzero"/><path fill="#000000" d="M 75.382812 65.210938 L 62.847656 65.210938 L 62.847656 41.660156 L 75.382812 41.660156 Z M 65.570312 62.492188 L 72.660156 62.492188 L 72.660156 44.382812 L 65.570312 44.382812 Z M 65.570312 62.492188 " fill-opacity="1" fill-rule="nonzero"/><path fill="#6293f1" d="M 84.375 32.992188 L 94.191406 32.992188 L 94.191406 63.878906 L 84.375 63.878906 Z M 84.375 32.992188 " fill-opacity="1" fill-rule="nonzero"/><path fill="#000000" d="M 95.578125 65.210938 L 83.039062 65.210938 L 83.039062 31.65625 L 95.578125 31.65625 Z M 85.761719 62.492188 L 92.855469 62.492188 L 92.855469 34.375 L 85.761719 34.375 Z M 85.761719 62.492188 " fill-opacity="1" fill-rule="nonzero"/><path fill="#6293f1" d="M 104.570312 26.0625 L 114.382812 26.0625 L 114.382812 63.878906 L 104.570312 63.878906 Z M 104.570312 26.0625 " fill-opacity="1" fill-rule="nonzero"/><path fill="#000000" d="M 115.71875 65.210938 L 103.179688 65.210938 L 103.179688 24.730469 L 115.71875 24.730469 Z M 105.90625 62.492188 L 112.996094 62.492188 L 112.996094 27.449219 L 105.90625 27.449219 Z M 105.90625 62.492188 " fill-opacity="1" fill-rule="nonzero"/><path fill="#6293f1" d="M 124.710938 42.839844 L 134.523438 42.839844 L 134.523438 63.878906 L 124.710938 63.878906 Z M 124.710938 42.839844 " fill-opacity="1" fill-rule="nonzero"/><path fill="#000000" d="M 135.910156 65.210938 L 123.324219 65.210938 L 123.324219 41.457031 L 135.910156 41.457031 Z M 126.046875 62.492188 L 133.1875 62.492188 L 133.1875 44.175781 L 126.046875 44.175781 Z M 126.046875 62.492188 " fill-opacity="1" fill-rule="nonzero"/><path fill="#000000" d="M 153.328125 39.507812 L 187.035156 39.507812 L 187.035156 42.226562 L 153.328125 42.226562 Z M 153.328125 39.507812 " fill-opacity="1" fill-rule="nonzero"/><path fill="#000000" d="M 153.328125 48.589844 L 187.035156 48.589844 L 187.035156 51.308594 L 153.328125 51.308594 Z M 153.328125 48.589844 " fill-opacity="1" fill-rule="nonzero"/><path fill="#000000" d="M 153.328125 57.667969 L 187.035156 57.667969 L 187.035156 60.386719 L 153.328125 60.386719 Z M 153.328125 57.667969 " fill-opacity="1" fill-rule="nonzero"/><path fill="#a3dfbe" d="M 169.875 84.195312 L 149.886719 85.9375 L 121.523438 95.789062 L 92.238281 91.070312 L 68.652344 101.742188 L 62.847656 104.050781 L 186.417969 104.050781 L 186.417969 77.730469 Z M 169.875 84.195312 " fill-opacity="1" fill-rule="nonzero"/><path fill="#000000" d="M 186.417969 105.4375 L 62.847656 105.4375 C 62.179688 105.4375 61.613281 104.972656 61.511719 104.308594 C 61.355469 103.691406 61.714844 103.023438 62.332031 102.820312 L 68.140625 100.511719 L 91.671875 89.839844 C 91.929688 89.734375 92.238281 89.683594 92.492188 89.734375 L 121.421875 94.40625 L 149.425781 84.65625 L 149.734375 84.65625 L 169.515625 82.914062 L 185.90625 76.5 C 186.316406 76.34375 186.832031 76.394531 187.191406 76.652344 C 187.550781 76.910156 187.753906 77.320312 187.753906 77.78125 L 187.753906 104.101562 C 187.703125 104.820312 187.140625 105.382812 186.417969 105.4375 Z M 69.835938 102.714844 L 185.03125 102.714844 L 185.03125 79.730469 L 170.335938 85.476562 L 169.976562 85.582031 L 150.144531 87.273438 L 121.988281 97.074219 C 121.78125 97.175781 121.523438 97.175781 121.320312 97.125 L 92.441406 92.507812 Z M 69.835938 102.714844 " fill-opacity="1" fill-rule="nonzero"/><path fill="#000000" d="M 63.105469 103.949219 C 62.382812 103.949219 61.769531 103.332031 61.769531 102.613281 L 61.769531 78.5 C 61.613281 77.730469 62.128906 77.011719 62.847656 76.859375 C 63.617188 76.703125 64.335938 77.21875 64.492188 77.933594 C 64.542969 78.089844 64.542969 78.292969 64.492188 78.449219 L 64.492188 102.5625 C 64.441406 103.382812 63.875 103.949219 63.105469 103.949219 Z M 63.105469 103.949219 " fill-opacity="1" fill-rule="nonzero"/><path fill="#a3dfbe" d="M 35.71875 147.917969 C 33.660156 147.917969 31.554688 148.121094 29.550781 148.535156 L 35.871094 177.46875 L 6.839844 171.160156 C 6.429688 173.210938 6.171875 175.265625 6.171875 177.367188 C 6.121094 193.683594 19.328125 206.867188 35.664062 206.921875 C 52.003906 206.972656 65.210938 193.785156 65.261719 177.46875 C 65.3125 161.15625 52.109375 147.96875 35.71875 147.917969 C 35.769531 147.917969 35.71875 147.917969 35.71875 147.917969 Z M 35.71875 147.917969 " fill-opacity="1" fill-rule="nonzero"/><g clip-path="url(#8df6c4a687)"><path fill="#000000" d="M 35.71875 208.253906 C 18.660156 208.203125 4.835938 194.402344 4.835938 177.367188 C 4.835938 175.160156 5.042969 173.007812 5.554688 170.851562 C 5.609375 170.492188 5.8125 170.183594 6.121094 169.980469 C 6.429688 169.824219 6.789062 169.722656 7.148438 169.824219 L 34.074219 175.675781 L 28.265625 148.839844 C 28.164062 148.480469 28.214844 148.121094 28.421875 147.816406 C 28.625 147.507812 28.933594 147.300781 29.292969 147.25 C 31.402344 146.789062 33.558594 146.53125 35.71875 146.53125 C 52.777344 147.25 66.082031 161.617188 65.363281 178.648438 C 64.695312 194.710938 51.800781 207.585938 35.71875 208.253906 Z M 7.917969 172.851562 C 7.664062 174.339844 7.558594 175.828125 7.558594 177.367188 C 7.558594 192.554688 19.890625 204.816406 35.050781 204.816406 C 50.207031 204.816406 62.539062 192.503906 62.539062 177.367188 C 62.539062 162.179688 50.207031 149.917969 35.050781 149.917969 C 33.558594 149.917969 32.121094 150.074219 30.628906 150.277344 L 36.488281 177.164062 C 36.640625 177.878906 36.230469 178.546875 35.511719 178.703125 C 35.304688 178.753906 35.101562 178.753906 34.894531 178.703125 Z M 7.917969 172.851562 " fill-opacity="1" fill-rule="nonzero"/></g><path fill="#6293f1" d="M 29.550781 148.480469 C 18.195312 150.894531 9.253906 159.769531 6.789062 171.109375 L 35.871094 177.46875 Z M 29.550781 148.480469 " fill-opacity="1" fill-rule="nonzero"/><path fill="#000000" d="M 35.871094 178.804688 L 35.5625 178.804688 L 6.480469 172.441406 C 5.761719 172.289062 5.300781 171.570312 5.453125 170.851562 C 8.023438 158.949219 17.375 149.660156 29.292969 147.148438 C 30.015625 146.996094 30.734375 147.457031 30.886719 148.175781 L 37.207031 177.164062 C 37.308594 177.625 37.15625 178.085938 36.847656 178.394531 C 36.589844 178.648438 36.230469 178.804688 35.871094 178.804688 Z M 8.433594 170.082031 L 34.074219 175.675781 L 28.523438 150.125 C 18.710938 152.6875 11.054688 160.332031 8.433594 170.082031 Z M 8.433594 170.082031 " fill-opacity="1" fill-rule="nonzero"/><path fill="#000000" d="M 6.839844 171.160156 L 6.328125 175.367188 C 6.328125 175.367188 30.476562 177.109375 33.609375 177.523438 Z M 6.839844 171.160156 " fill-opacity="1" fill-rule="nonzero"/><path fill="#000000" d="M 33.609375 177.523438 L 33.917969 177.625 C 33.917969 177.625 33.816406 177.574219 33.609375 177.523438 Z M 33.609375 177.523438 " fill-opacity="1" fill-rule="nonzero"/><path fill="#ffffff" d="M 121.238281 291.175781 C 122.132812 291.792969 122.96875 292.476562 123.742188 293.230469 C 124.511719 293.988281 125.210938 294.796875 125.832031 295.664062 C 126.453125 296.527344 126.988281 297.429688 127.433594 298.371094 C 127.878906 299.316406 128.230469 300.277344 128.484375 301.261719 C 128.738281 302.242188 128.894531 303.226562 128.945312 304.210938 C 129 305.199219 128.949219 306.164062 128.796875 307.117188 C 128.644531 308.066406 128.394531 308.980469 128.046875 309.859375 C 127.695312 310.738281 127.253906 311.566406 126.71875 312.339844 C 126.183594 313.113281 125.566406 313.820312 124.867188 314.457031 C 124.171875 315.097656 123.402344 315.65625 122.566406 316.132812 C 121.730469 316.613281 120.84375 317.003906 119.902344 317.304688 C 118.960938 317.605469 117.984375 317.8125 116.972656 317.921875 C 115.964844 318.035156 114.9375 318.050781 113.898438 317.96875 C 112.855469 317.886719 111.820312 317.707031 110.789062 317.433594 C 109.761719 317.160156 108.753906 316.796875 107.773438 316.34375 C 106.792969 315.890625 105.855469 315.355469 104.960938 314.742188 C 104.066406 314.125 103.230469 313.441406 102.460938 312.683594 C 101.6875 311.929688 100.988281 311.121094 100.367188 310.253906 C 99.746094 309.390625 99.210938 308.484375 98.765625 307.542969 C 98.320312 306.601562 97.96875 305.640625 97.714844 304.65625 C 97.460938 303.675781 97.304688 302.691406 97.253906 301.703125 C 97.203125 300.71875 97.25 299.75 97.402344 298.800781 C 97.554688 297.851562 97.804688 296.933594 98.15625 296.054688 C 98.503906 295.175781 98.945312 294.351562 99.480469 293.578125 C 100.015625 292.804688 100.632812 292.097656 101.332031 291.457031 C 102.03125 290.820312 102.796875 290.261719 103.632812 289.78125 C 104.46875 289.304688 105.355469 288.914062 106.296875 288.613281 C 107.238281 288.3125 108.214844 288.105469 109.226562 287.992188 C 110.234375 287.882812 111.261719 287.867188 112.300781 287.949219 C 113.34375 288.03125 114.378906 288.210938 115.410156 288.480469 C 116.4375 288.753906 117.445312 289.117188 118.425781 289.570312 C 119.40625 290.023438 120.34375 290.558594 121.238281 291.175781 Z M 121.238281 291.175781 " fill-opacity="1" fill-rule="nonzero"/><path fill="#000000" d="M 115.152344 319.691406 C 105.800781 319.691406 97.222656 312.355469 95.9375 303.429688 C 95.371094 299.066406 96.5 294.960938 99.226562 291.832031 C 102.207031 288.550781 106.46875 286.703125 110.941406 286.804688 C 120.292969 286.804688 128.871094 294.089844 130.105469 303.070312 C 130.773438 307.226562 129.539062 311.433594 126.816406 314.613281 C 123.992188 317.898438 119.828125 319.691406 115.152344 319.691406 Z M 110.941406 289.523438 C 107.035156 289.523438 103.59375 290.960938 101.28125 293.628906 C 99.070312 296.246094 98.09375 299.683594 98.660156 303.070312 C 99.738281 310.714844 107.136719 316.972656 115.152344 316.972656 C 119.058594 316.972656 122.449219 315.484375 124.761719 312.816406 C 127.023438 310.25 128 306.8125 127.433594 303.429688 C 126.355469 295.730469 118.957031 289.523438 110.941406 289.523438 Z M 110.941406 289.523438 " fill-opacity="1" fill-rule="nonzero"/></svg>